<svg transform="scale(1)" version="1.1" id="Layer_1" xmlns="http://www.w3.org/2000/svg" xmlns:xlink="http://www.w3.org/1999/xlink" x="0px" y="0px" viewBox="0 0 500 500" xml:space="preserve" class="show_show__wrapper__graphic__5Waiy "><title>React</title><style type="text/css">
	.st0{fill:#000001;}
	.st1{fill:#3299F5;}
	.st2{fill:#F2EBEB;}
	.st3{clip-path:url(#SVGID_2_);}
	.st4{fill:#EA8383;}
</style><g id="document"><path class="st0" d="M126,345.3c0,0-21.3-190.6-6.2-195.4s55.5-1.4,67.2-1.4s16.4,13.7,16.4,13.7s106.1,3.7,113.7,6
		s-23.9,177.1-23.9,177.1H126z"></path><path class="st1" d="M162.3,188.3c0,0,217.3-4.5,223.5,3.6s-30.7,148.7-39.3,153.4s-220.5,0-220.5,0S152.1,188.5,162.3,188.3z"></path><path class="st2" d="M158.6,319.3c4.9-2.4,9.9-4.8,14.6-7.5c2.4-1.3,4.6-2.8,6.7-4.5c0.5-0.4,1-0.9,1.4-1.3
		c0.4-0.4,0.7-0.9,0.9-1.4c0.1-0.4,0-0.6-0.5-0.9c-0.5-0.3-1-0.5-1.6-0.5c-1.2-0.1-2.4,0.2-3.4,0.8c-1.1,0.6-2.1,1.4-3,2.4
		c-1.7,1.9-3.1,4.2-3.9,6.7c-0.4,1.2-0.7,2.5-0.8,3.7c-0.1,1.2,0.1,2.4,0.7,3.4c0.6,1,1.5,1.7,2.6,1.9c1.2,0.3,2.5,0.4,3.7,0.2
		c5.3-0.5,10.2-2.9,13.8-6.7c0.9-0.9,1.7-1.9,2.2-3c0.1-0.2,0.2-0.5,0.3-0.8c0-0.1,0-0.2,0-0.4c0,0.1,0.1,0-0.1,0
		c-0.2,0-0.5,0-0.7,0.1c-1.2,0.4-2.3,1-3.3,1.8c-1,0.8-1.9,1.7-2.7,2.8c-0.8,1-1.5,2.1-2,3.3c-0.5,1.1-0.7,2.3-0.5,3.5
		c0.4,1.1,1.4,1.9,2.5,2c0.6,0.1,1.3,0.2,1.9,0.2c0.6,0,1.3-0.1,2-0.1c2.7-0.3,5.2-1.3,7.4-2.9c2.2-1.6,4-3.7,5.3-6.1
		c-1.1,2.5-2.8,4.8-5,6.5c-2.2,1.8-4.8,2.9-7.6,3.5c-0.7,0.1-1.4,0.2-2.1,0.2c-0.7,0-1.4,0-2.2-0.1c-0.8-0.1-1.5-0.4-2.1-0.8
		c-0.7-0.5-1.2-1.2-1.4-2c-0.4-1.5-0.2-3.1,0.4-4.5c0.5-1.3,1.2-2.6,2.1-3.8c1.7-2.4,4-4.3,6.7-5.3c0.4-0.1,0.8-0.2,1.3-0.2
		c0.7,0,1.3,0.3,1.6,0.8c0.3,0.5,0.3,1.1,0.2,1.6c-0.1,0.4-0.2,0.8-0.4,1.2c-0.6,1.3-1.5,2.5-2.5,3.6c-3.9,4.2-9.3,6.9-15,7.4
		c-1.5,0.1-3,0-4.4-0.3c-1.6-0.4-2.9-1.5-3.8-2.9c-0.7-1.4-1-2.9-0.9-4.5c0.1-1.5,0.4-2.9,0.9-4.3c1-2.7,2.5-5.2,4.5-7.3
		c1-1.1,2.2-2,3.4-2.7c1.4-0.7,2.9-1,4.4-0.9c0.8,0.1,1.5,0.4,2.2,0.8c0.4,0.3,0.7,0.6,0.9,1c0.2,0.5,0.2,1,0.1,1.5
		c-0.3,0.8-0.7,1.4-1.3,2c-0.5,0.5-1,1-1.6,1.4c-2.2,1.6-4.6,3.1-7.1,4.3C168.7,315.1,163.7,317.3,158.6,319.3z"></path></g><g id="magnifying-glass"><polygon class="st0" points="350.5,323.9 356,337.6 366,332 359.1,319.3 	"></polygon><path class="st1" d="M394.2,429.1c0,0-41.5-84.1-41.2-90.3s15.6-8.6,15.6-8.6s46.9,78.8,50,90.9S397,434.8,394.2,429.1z"></path><path class="st0" d="M277.4,215.1c0,0-24.2,27.8-8.6,67.4s41.2,69.4,95.5,33.4s17.1-97.3-7.1-115.7S286,200.3,277.4,215.1z"></path><path class="st2" d="M286.8,223.8c0,0-19.6,22.5-7,54.5s33.4,56.2,77.3,27s13.8-78.7-5.7-93.6S293.7,211.8,286.8,223.8z"></path><g><defs><path id="SVGID_1_" d="M394.2,429.1c0,0-41.5-84.1-41.2-90.3s15.6-8.6,15.6-8.6s46.9,78.8,50,90.9S397,434.8,394.2,429.1z"></path></defs><clipPath id="SVGID_2_"><use xlink:href="#SVGID_1_" style="overflow: visible;"></use></clipPath><g class="st3"><path class="st2" d="M536.2,469.7c-0.1,0-0.1,0-0.2,0l-254.8-80.2c-0.3-0.1-0.5-0.4-0.4-0.7c0,0,0,0,0,0c0.1-0.3,0.4-0.5,0.7-0.4
				c0,0,0,0,0,0l254.8,80.2c0.3,0.1,0.5,0.4,0.4,0.7C536.7,469.6,536.5,469.7,536.2,469.7z"></path><path class="st2" d="M541.4,451.7c-0.1,0-0.1,0-0.2,0l-255.6-75.4c-0.3-0.1-0.5-0.5-0.3-0.8c0.1-0.3,0.4-0.4,0.7-0.4l255.6,75.4
				c0.3,0.1,0.5,0.4,0.4,0.7C541.9,451.5,541.6,451.7,541.4,451.7z"></path><path class="st2" d="M546.2,435c-0.1,0-0.1,0-0.2,0l-256.2-73.4c-0.3-0.1-0.5-0.4-0.4-0.7c0.1-0.3,0.4-0.5,0.7-0.4c0,0,0,0,0,0
				l256.2,73.3c0.3,0.1,0.5,0.4,0.4,0.7C546.7,434.8,546.4,435,546.2,435z"></path><path class="st2" d="M550.7,419.1h-0.2l-256.8-71.8c-0.3-0.1-0.5-0.4-0.4-0.7s0.4-0.5,0.7-0.4l0,0l256.8,71.8
				c0.3,0.1,0.5,0.4,0.4,0.7C551.2,418.9,551,419.1,550.7,419.1z"></path><path class="st2" d="M555.6,401.9h-0.2l-258.1-66.6c-0.3-0.1-0.5-0.4-0.5-0.7c0.1-0.3,0.4-0.5,0.7-0.5c0,0,0.1,0,0.1,0
				l258.1,66.6c0.3,0.1,0.5,0.4,0.4,0.7c0,0,0,0,0,0C556.1,401.7,555.9,401.9,555.6,401.9z"></path><path class="st2" d="M559.8,387.4h-0.2l-258.6-65c-0.3-0.1-0.5-0.4-0.4-0.7s0.4-0.5,0.7-0.4l258.6,65c0.3,0.1,0.5,0.4,0.5,0.7
				C560.4,387.2,560.1,387.4,559.8,387.4L559.8,387.4z"></path><path class="st2" d="M562.5,378.1h-0.1L303.5,314c-0.3-0.1-0.5-0.4-0.4-0.7s0.4-0.5,0.7-0.4L562.6,377c0.3,0.1,0.5,0.4,0.4,0.7
				C563,378,562.7,378.2,562.5,378.1L562.5,378.1z"></path><path class="st2" d="M564.8,370.2h-0.2l-258.1-66.6c-0.3-0.1-0.5-0.4-0.5-0.7c0.1-0.3,0.4-0.5,0.7-0.5c0,0,0.1,0,0.1,0L564.9,369
				c0.3,0.1,0.5,0.4,0.4,0.7C565.3,370,565,370.2,564.8,370.2z"></path><path class="st2" d="M330.4,466.8h-0.2c-0.3-0.1-0.5-0.4-0.4-0.7c0,0,0,0,0,0l61.8-215.9c0.1-0.3,0.5-0.5,0.8-0.3
				c0.3,0.1,0.4,0.4,0.4,0.7l-61.8,215.9C330.8,466.6,330.6,466.8,330.4,466.8z"></path><path class="st2" d="M317.3,462.7c-0.1,0-0.1,0-0.2,0c-0.3-0.1-0.5-0.4-0.4-0.7c0,0,0,0,0,0l63.6-212.3c0.1-0.3,0.4-0.5,0.7-0.4
				c0.3,0.1,0.5,0.4,0.4,0.7l-63.6,212.3C317.8,462.5,317.6,462.7,317.3,462.7z"></path><path class="st2" d="M303,458.6c-0.1,0-0.1,0-0.2,0c-0.3-0.1-0.5-0.4-0.4-0.7l47.2-164.9c0.1-0.3,0.4-0.5,0.7-0.4c0,0,0,0,0,0
				c0.3,0.1,0.5,0.4,0.4,0.7c0,0,0,0,0,0l-47.2,164.9C303.5,458.4,303.3,458.6,303,458.6z"></path><path class="st2" d="M288.9,454.6h-0.2c-0.3-0.1-0.5-0.4-0.4-0.7c0,0,0,0,0,0L334,288.5c0.1-0.3,0.4-0.5,0.7-0.4s0.5,0.4,0.4,0.7
				l-45.6,165.4C289.4,454.5,289.2,454.6,288.9,454.6z"></path><path class="st2" d="M277.2,451.2H277c-0.3-0.1-0.5-0.4-0.4-0.7c0,0,0,0,0,0l40.6-166.8c0.1-0.3,0.4-0.5,0.7-0.4c0,0,0,0,0,0
				c0.3,0.1,0.5,0.4,0.4,0.7l-40.6,166.8C277.7,451,277.4,451.2,277.2,451.2z"></path><path class="st2" d="M264.5,447.5h-0.1c-0.3-0.1-0.5-0.4-0.5-0.7L303,279.5c0.1-0.3,0.4-0.5,0.7-0.4c0,0,0,0,0,0
				c0.3,0.1,0.5,0.4,0.4,0.7c0,0,0,0,0,0l-39.1,167.3C265,447.3,264.8,447.5,264.5,447.5z"></path><path class="st2" d="M256.4,445.2h-0.1c-0.3-0.1-0.5-0.4-0.4-0.7L294,277c0.1-0.3,0.4-0.5,0.7-0.4c0,0,0,0,0,0
				c0.3,0.1,0.5,0.4,0.5,0.7L257,444.8C256.9,445,256.7,445.2,256.4,445.2z"></path><path class="st2" d="M246.1,442.3H246c-0.3-0.1-0.5-0.4-0.4-0.7l40.6-166.8c0.1-0.3,0.4-0.5,0.7-0.4c0,0,0,0,0,0
				c0.3,0.1,0.5,0.4,0.4,0.7l-40.6,166.8C246.6,442.1,246.4,442.3,246.1,442.3z"></path><path class="st2" d="M380,492.2h-0.2c-0.3-0.1-0.5-0.4-0.4-0.7c0,0,0,0,0,0l84.3-269.8c0.1-0.3,0.4-0.5,0.7-0.4
				c0.3,0.1,0.5,0.4,0.4,0.7l-84.3,269.7C380.5,492,380.3,492.2,380,492.2z"></path><path class="st2" d="M367.1,487.9c-0.1,0-0.1,0-0.2,0c-0.3-0.1-0.5-0.4-0.4-0.7l79.6-270.5c0.1-0.3,0.4-0.5,0.7-0.4c0,0,0,0,0,0
				c0.3,0.1,0.5,0.4,0.4,0.7l-79.6,270.5C367.6,487.7,367.4,487.9,367.1,487.9z"></path><path class="st2" d="M352.8,483.8h-0.2c-0.3-0.1-0.5-0.4-0.4-0.7L429.8,212c0.1-0.3,0.4-0.5,0.7-0.4c0.3,0.1,0.5,0.4,0.4,0.7
				l-77.6,271C353.2,483.6,353,483.8,352.8,483.8z"></path><path class="st2" d="M338.7,479.9c-0.1,0-0.1,0-0.2,0c-0.3-0.1-0.5-0.4-0.4-0.7c0,0,0,0,0,0l76.1-271.6c0.1-0.3,0.4-0.5,0.7-0.4
				c0,0,0,0,0,0c0.3,0.1,0.5,0.4,0.4,0.7l-76.1,271.6C339.2,479.7,339,479.9,338.7,479.9z"></path><path class="st2" d="M326.9,476.4c0,0-0.1,0-0.1,0c-0.3-0.1-0.5-0.4-0.4-0.7l71-273c0.1-0.3,0.4-0.5,0.7-0.4
				c0.3,0.1,0.5,0.4,0.4,0.7l-71,273C327.4,476.3,327.2,476.4,326.9,476.4z"></path><path class="st2" d="M314.3,472.7h-0.1c-0.3-0.1-0.5-0.4-0.4-0.7l69.4-273.4c0.1-0.3,0.4-0.5,0.7-0.4c0.3,0.1,0.4,0.4,0.4,0.7
				l-69.4,273.4C314.8,472.6,314.5,472.7,314.3,472.7z"></path><path class="st2" d="M306.1,470.4H306c-0.3-0.1-0.5-0.4-0.4-0.7L374.1,196c0.1-0.3,0.4-0.5,0.7-0.4c0.3,0.1,0.5,0.4,0.4,0.7
				c0,0,0,0,0,0L306.7,470C306.6,470.2,306.4,470.4,306.1,470.4z"></path><path class="st2" d="M295.9,467.5h-0.1c-0.3-0.1-0.5-0.4-0.4-0.7c0,0,0,0,0,0l71-273c0.1-0.3,0.4-0.5,0.7-0.4c0,0,0,0,0,0
				c0.3,0.1,0.5,0.4,0.4,0.7l-71,273C296.4,467.3,296.2,467.5,295.9,467.5z"></path><path class="st2" d="M528.7,356.1h-0.2L319,288.8c-0.3-0.1-0.5-0.4-0.4-0.7c0.1-0.3,0.4-0.5,0.7-0.4l209.6,67.2
				c0.3,0.1,0.5,0.4,0.4,0.7C529.2,355.9,529,356.1,528.7,356.1L528.7,356.1z"></path><path class="st2" d="M533.9,338.1c-0.1,0-0.1,0-0.2,0l-210.5-62.5c-0.3-0.1-0.5-0.4-0.4-0.7c0,0,0,0,0,0c0.1-0.3,0.4-0.5,0.7-0.4
				c0,0,0,0,0,0L534,336.9c0.3,0.1,0.5,0.4,0.4,0.7C534.3,337.9,534.1,338.1,533.9,338.1L533.9,338.1z"></path><path class="st2" d="M538.7,321.3c-0.1,0-0.1,0-0.2,0l-211.1-60.4c-0.3-0.1-0.5-0.4-0.4-0.7c0.1-0.3,0.4-0.5,0.7-0.4l211.1,60.4
				c0.3,0.1,0.5,0.4,0.4,0.7C539.1,321.2,538.9,321.3,538.7,321.3L538.7,321.3z"></path><path class="st2" d="M543.2,305.4c-0.1,0-0.1,0-0.2,0l-211.6-58.9c-0.3-0.1-0.5-0.4-0.4-0.7c0.1-0.3,0.4-0.5,0.7-0.4l211.6,58.8
				c0.3,0.1,0.5,0.4,0.4,0.7C543.7,305.3,543.5,305.4,543.2,305.4z"></path><path class="st2" d="M548.1,288.3H548l-213-53.7c-0.3-0.1-0.5-0.4-0.4-0.7s0.4-0.5,0.7-0.4l0,0l213,53.7c0.3,0.1,0.5,0.4,0.4,0.7
				C548.6,288.1,548.4,288.3,548.1,288.3L548.1,288.3z"></path><path class="st2" d="M552.3,273.7c0,0-0.1,0-0.1,0l-213.5-52.1c-0.3-0.1-0.5-0.4-0.4-0.7s0.4-0.5,0.7-0.4l0,0l213.4,52.1
				c0.3,0.1,0.5,0.4,0.4,0.7C552.8,273.5,552.6,273.7,552.3,273.7L552.3,273.7z"></path><path class="st2" d="M555,264.5h-0.1l-213.8-51.2c-0.3-0.1-0.5-0.4-0.4-0.7c0,0,0,0,0,0c0.1-0.3,0.4-0.5,0.7-0.4c0,0,0,0,0,0
				l213.7,51.2c0.3,0.1,0.5,0.4,0.4,0.7c0,0,0,0,0,0C555.5,264.3,555.3,264.5,555,264.5z"></path><path class="st2" d="M557.2,256.6h-0.2l-213-53.7c-0.3-0.1-0.5-0.4-0.4-0.7c0,0,0,0,0,0c0.1-0.3,0.4-0.5,0.7-0.4c0,0,0,0,0,0
				l213,53.7c0.3,0.1,0.5,0.4,0.4,0.7c0,0,0,0,0,0C557.7,256.4,557.5,256.6,557.2,256.6z"></path><path class="st2" d="M482.3,527h-0.2c-0.3-0.1-0.5-0.4-0.4-0.7L566,256.5c0.1-0.3,0.4-0.5,0.7-0.4c0.3,0.1,0.5,0.4,0.4,0.7
				c0,0,0,0,0,0l-84.3,269.7C482.8,526.8,482.6,527,482.3,527z"></path><path class="st2" d="M469.3,522.7h-0.2c-0.3-0.1-0.5-0.4-0.4-0.7c0,0,0,0,0,0l79.6-270.5c0.1-0.3,0.4-0.5,0.7-0.4
				c0.3,0.1,0.5,0.4,0.4,0.7c0,0,0,0,0,0l-79.6,270.5C469.8,522.6,469.6,522.7,469.3,522.7z"></path><path class="st2" d="M455,518.6c-0.1,0-0.1,0-0.2,0c-0.3-0.1-0.5-0.4-0.4-0.7c0,0,0,0,0,0L532,246.8c0.1-0.3,0.5-0.5,0.8-0.3
				c0.3,0.1,0.4,0.4,0.4,0.7l-77.6,271.1C455.5,518.5,455.3,518.6,455,518.6z"></path><path class="st2" d="M440.9,514.7h-0.2c-0.3-0.1-0.5-0.4-0.4-0.7l76.1-271.6c0.1-0.3,0.4-0.5,0.7-0.4c0.3,0.1,0.5,0.4,0.4,0.7
				l0,0l-76.1,271.6C441.4,514.6,441.2,514.7,440.9,514.7z"></path><path class="st2" d="M429.2,511.2H429c-0.3-0.1-0.5-0.4-0.4-0.7c0,0,0,0,0,0l71-273c0.1-0.3,0.4-0.5,0.7-0.5
				c0.3,0.1,0.5,0.4,0.5,0.7c0,0,0,0,0,0.1l-71,273C429.7,511.1,429.4,511.2,429.2,511.2z"></path><path class="st2" d="M416.5,507.6h-0.1c-0.3-0.1-0.5-0.4-0.4-0.7c0,0,0,0,0,0l69.4-273.4c0.1-0.3,0.4-0.5,0.7-0.4
				c0.3,0.1,0.5,0.4,0.4,0.7l-69.4,273.4C417,507.4,416.8,507.6,416.5,507.6z"></path><path class="st2" d="M408.4,505.2h-0.1c-0.3-0.1-0.5-0.4-0.4-0.7c0,0,0,0,0,0l68.5-273.7c0.1-0.3,0.4-0.5,0.7-0.5
				s0.5,0.4,0.5,0.7c0,0,0,0.1,0,0.1L409,504.8C408.9,505.1,408.7,505.2,408.4,505.2z"></path><path class="st2" d="M398.1,502.3H398c-0.3-0.1-0.5-0.4-0.4-0.7l71-273c0.1-0.3,0.4-0.5,0.7-0.4c0.3,0.1,0.5,0.4,0.4,0.7l-71,273
				C398.6,502.1,398.4,502.3,398.1,502.3z"></path></g></g><path class="st4" d="M354.9,191.9c-0.2-2-0.4-4-0.3-6c0-2,0.1-4,0.2-5.9c0.1-2,0.4-3.9,0.6-5.9c0.3-2,0.7-3.9,1.2-5.9
		c0.2,2,0.4,4,0.3,6c0,2-0.1,4-0.2,5.9s-0.4,3.9-0.7,5.9C355.8,188,355.4,189.9,354.9,191.9z"></path><path class="st4" d="M361.9,192.9c1.8-2.2,3.8-4.3,5.8-6.3s4.1-4,6.1-5.9s4.2-3.8,6.4-5.6s4.4-3.6,6.8-5.2
		c-1.8,2.2-3.8,4.3-5.8,6.3s-4.1,4-6.1,5.9s-4.2,3.8-6.4,5.6S364.2,191.3,361.9,192.9z"></path><path class="st4" d="M369.5,198.1c1.1-0.7,2.3-1.2,3.5-1.6c1.2-0.4,2.4-0.8,3.6-1.1c1.2-0.3,2.4-0.5,3.7-0.6
		c1.3-0.2,2.5-0.2,3.8-0.1c-1.1,0.7-2.3,1.2-3.5,1.6c-1.2,0.4-2.4,0.8-3.6,1.1c-1.2,0.3-2.4,0.5-3.7,0.6
		C372.1,198.2,370.8,198.2,369.5,198.1z"></path><path class="st0" d="M306.5,264.7c-0.5,0-1-0.1-1.5-0.3c-1.5-0.5-2.7-1.7-3.2-3.2c-0.9-3.3,2.3-7.2,2.7-7.7l0.2-0.2l0.2-0.1
		c3.1-1.5,4.8-0.2,5.5,0.6c1.8,2.2,1.4,6.4-0.3,8.8C309.3,263.9,308,264.6,306.5,264.7z M306.1,255.3c-0.8,1-2.5,3.7-2,5.3
		c0.3,0.8,0.9,1.4,1.7,1.6c0.3,0.1,1.4,0.5,2.4-0.9c1.2-1.7,1.4-4.7,0.4-5.9C308.1,254.8,307.3,254.8,306.1,255.3z"></path><path class="st0" d="M329.5,264.7c-0.5,0-1-0.1-1.5-0.3c-1.5-0.5-2.7-1.7-3.2-3.2c-0.9-3.3,2.3-7.2,2.7-7.7l0.2-0.2l0.2-0.1
		c3.1-1.5,4.8-0.2,5.5,0.6c1.8,2.2,1.4,6.4-0.3,8.8C332.3,263.9,331,264.7,329.5,264.7z M329.1,255.3c-0.8,1.1-2.5,3.7-2,5.3
		c0.3,0.8,0.9,1.4,1.7,1.6c0.9,0.4,1.9,0,2.4-0.9c1.2-1.7,1.4-4.7,0.4-5.9C331.1,254.9,330.3,254.8,329.1,255.3L329.1,255.3z"></path><path class="st0" d="M351.2,265.6c-0.5,0-1-0.1-1.5-0.3c-1.5-0.5-2.7-1.7-3.2-3.2c-0.9-3.3,2.3-7.2,2.7-7.7l0.2-0.2l0.2-0.1
		c3.1-1.5,4.8-0.2,5.5,0.6c1.8,2.2,1.4,6.4-0.3,8.8C354,264.8,352.7,265.5,351.2,265.6z M350.9,256.1c-0.8,1-2.5,3.7-2,5.4
		c0.3,0.8,0.9,1.4,1.7,1.6c0.9,0.4,1.9,0,2.4-0.9c1.2-1.7,1.4-4.7,0.4-5.9C352.8,255.7,352,255.6,350.9,256.1L350.9,256.1z"></path></g><g id="fly"><path class="st4" d="M138.9,245.8c-8.7,0.7-17.4,0-25.9-2c-4.2-1-8.4-2.5-12.3-4.5c-3.9-2-7.5-4.6-10.6-7.7
		c-3.1-3.2-5.5-6.9-7.1-11c-1.7-4.1-2.7-8.4-3-12.8c-0.3-4.4-0.4-8.7-0.4-13.1s0.4-8.7,0.9-13.1c1-8.7,3.2-17.2,6.4-25.4
		c3.2-8.2,7.8-15.8,13.7-22.3c6-6.5,13.5-11.5,21.8-14.7c4.1-1.5,8.4-2.6,12.8-3.2c1.1-0.2,2.2-0.2,3.3-0.4l1.6-0.2l1.6-0.1l3.3-0.2
		h3.3c2.2,0,4.3,0.1,6.5,0.1s4.3-0.1,6.4-0.4c4.3-0.4,8.5-1.2,12.6-2.5c8.2-2.4,15.8-6.7,22.1-12.5c3.2-2.9,5.9-6.1,8.3-9.7
		c2.4-3.5,4.2-7.4,5.4-11.5c0.6-2,0.8-4,0.5-6.1c-0.1-0.9-0.5-1.7-1.2-2.2c-0.8-0.4-1.7-0.4-2.4,0c-1.9,0.8-3.5,2.1-4.6,3.8
		c-1.2,1.7-2,3.6-2.5,5.7c-0.5,2-0.6,4.1-0.3,6.1c0.3,2,1.5,3.7,3.1,4.8c1.8,1,3.8,1.3,5.9,1c2.1-0.3,4.1-0.8,6.1-1.6
		c2-0.8,3.9-1.7,5.8-2.8l2.8-1.6c1-0.5,1.9-1.1,2.9-1.5c3.9-1.9,8.1-3.3,12.4-4.2c4.3-0.8,8.6-1.2,13-1c4.4,0.2,8.7,0.8,12.9,1.9
		c8.5,2.1,16.5,5.5,23.9,10.1c-3.7-2.2-7.6-4.2-11.6-5.8c-4-1.6-8.2-2.9-12.4-3.9c-4.2-0.9-8.5-1.5-12.8-1.6
		c-4.3-0.1-8.6,0.3-12.8,1.2c-4.2,0.9-8.3,2.3-12.1,4.2c-1,0.4-1.9,1-2.8,1.5l-2.8,1.6c-1.9,1.1-3.9,2.1-5.9,2.9
		c-2.1,0.9-4.2,1.5-6.4,1.8c-2.3,0.4-4.7,0-6.7-1.1c-1-0.6-1.9-1.5-2.6-2.5c-0.6-1-1.1-2.1-1.3-3.2c-0.4-2.2-0.3-4.6,0.2-6.8
		c0.5-2.2,1.5-4.3,2.7-6.2c1.3-2,3.1-3.5,5.3-4.4c0.6-0.2,1.2-0.3,1.8-0.4c0.7,0,1.4,0.1,2,0.5c0.6,0.4,1.1,0.9,1.4,1.5
		c0.3,0.6,0.5,1.2,0.6,1.8c0.3,2.3,0.1,4.6-0.6,6.8c-1.2,4.3-3.1,8.3-5.6,12c-2.4,3.7-5.3,7.1-8.6,10.1c-6.5,6-14.3,10.4-22.8,13
		c-8.5,2.5-17.3,3.5-26.1,2.9h-3.2l-3.2,0.1l-1.6,0.1l-1.6,0.2c-1.1,0.1-2.1,0.2-3.2,0.4c-4.2,0.6-8.4,1.7-12.4,3.1
		c-8,3-15.3,7.8-21.1,14.1c-5.8,6.4-10.4,13.7-13.5,21.7c-1.6,4-3,8.1-4,12.3c-1.1,4.2-1.9,8.4-2.4,12.7c-0.6,4.3-0.9,8.6-1.1,12.9
		s0,8.6,0.2,13c0.3,4.3,1.2,8.5,2.7,12.5c1.6,4,3.9,7.6,6.8,10.8c2.9,3.1,6.4,5.7,10.2,7.7c3.8,2,7.8,3.6,12,4.6
		c4.2,1.1,8.5,1.8,12.8,2.2C130.1,246,134.5,246,138.9,245.8z"></path><path class="st0" d="M311.4,99.6c0,0-12.9-15-4.1-19.9S315.6,98.3,311.4,99.6z"></path><path class="st1" d="M318.3,81.3c0,0,4-3.6,4.9,5.3s-11.9,13.1-11.9,13.1S309,87,318.3,81.3z"></path><path class="st0" d="M316.7,97.8c0,0-23.5-3.7-20.1,3.5s22.4,7.9,26.1,3.9S324.3,98.6,316.7,97.8z"></path><path class="st2" d="M313,97.3c0.7,0.7,1.2,1.6,1.4,2.6c0.2,1,0.1,2.1-0.2,3.1c-0.3,1-0.9,1.9-1.5,2.6c-0.3,0.4-0.7,0.7-1.1,1
		s-0.8,0.6-1.2,0.8c0.3-0.4,0.6-0.8,0.9-1.2l0.8-1.2c0.5-0.8,0.9-1.6,1.2-2.5C313.8,100.9,313.7,99,313,97.3z"></path><path class="st2" d="M304.8,96.8c0.3,0.7,0.5,1.5,0.6,2.2c0.1,0.8,0,1.6-0.1,2.3c-0.2,0.8-0.5,1.5-0.9,2.2c-0.4,0.7-1,1.2-1.8,1.6
		c0.4-0.6,0.8-1.3,1.1-1.9c0.3-0.6,0.5-1.3,0.6-2C304.6,99.8,304.7,98.3,304.8,96.8z"></path><path class="st0" d="M328.6,94.6c-0.1,0.9-0.3,1.8-0.6,2.7c-0.3,0.9-0.7,1.8-1.2,2.6c-0.5,0.8-1.2,1.6-2,2.1
		c-0.9,0.5-1.9,0.8-2.9,0.7l-1-0.1l0.8-0.7c0.4-0.4,0.7-0.8,1.1-1.2c0.3-0.4,0.6-0.9,0.9-1.4c0.3-0.5,0.5-1,0.7-1.5
		c0.2-0.5,0.3-1.1,0.4-1.7c0.1,1.2,0,2.4-0.5,3.4c-0.2,0.5-0.5,1.1-0.8,1.6c-0.3,0.5-0.7,1-1.1,1.4l-0.3-0.8c0.8,0,1.6-0.2,2.3-0.6
		c0.7-0.5,1.3-1.1,1.7-1.7C327.1,97.9,327.9,96.3,328.6,94.6z"></path></g></svg>